<?xml version="1.0" encoding="utf-8"?>
<!-- Generator: Adobe Illustrator 21.1.0, SVG Export Plug-In . SVG Version: 6.00 Build 0)  -->
<svg version="1.1" id="Laag_1" xmlns="http://www.w3.org/2000/svg" xmlns:xlink="http://www.w3.org/1999/xlink" x="0px" y="0px"
	 viewBox="0 0 174 174" style="enable-background:new 0 0 174 174;" xml:space="preserve">
<style type="text/css">
	.st0{filter:url(#filter-2);}
	.st1{fill:#FFFFFF;}
	.st2{fill:#00D66C;}
</style>
<filter  filterUnits="objectBoundingBox" height="200%" id="filter-2" width="200%" x="-50%" y="-50%">
	<feOffset  dx="1" dy="1" in="SourceAlpha" result="shadowOffsetOuter1"></feOffset>
	<feGaussianBlur  in="shadowOffsetOuter1" result="shadowBlurOuter1" stdDeviation="2"></feGaussianBlur>
	<feColorMatrix  in="shadowBlurOuter1" type="matrix" values="0 0 0 0 0   0 0 0 0 0   0 0 0 0 0  0 0 0 0.413666214 0">
		</feColorMatrix>
</filter>
<title>Oval 3</title>
<desc>Created with Sketch.</desc>
<g id="Page-1">
	<g id="_x31_80---iPhone-6-Plus" transform="translate(-2.000000, -1.000000)">
		<g id="Oval-3">
			<g class="st0">
				<circle id="path-1_2_" cx="88" cy="87" r="83"/>
			</g>
			<g>
				<circle id="path-1_1_" class="st1" cx="88" cy="87" r="83"/>
			</g>
		</g>
		<g id="logo-transavia" transform="translate(30.000000, 22.000000)">
			<path id="Combined-Shape" class="st2" d="M58.9,27V8c0-4.4-3.6-8-8-8h-2.2c-4.4,0-8,3.6-8,8v29.1c0,2.2,0.9,4.2,2.3,5.7
				c1.4,1.4,3.4,2.3,5.7,2.3h29.4c4.4,0,8-3.6,8-8v-2c0-4.4-3.6-8-8-8H58.9z"/>
			<path id="Combined-Shape_1_" class="st2" d="M43.8,42c1.4,1.4,2.3,3.4,2.3,5.7v40.8c0,4.4-3.6,8-8,8H36c-4.4,0-8-3.6-8-8V57.7
				H8.8c-4.4,0-8-3.6-8-8v-2c0-4.4,3.6-8,8-8h29.4C40.4,39.7,42.4,40.6,43.8,42L43.8,42z"/>
			<path id="Combined-Shape_2_" class="st2" d="M46.2,89.2H28c0.2,21.4,17.8,38.8,39.5,38.8s39.3-17.3,39.5-38.8H86.1
				c0,11-8.9,19.8-20,19.8S46.2,100.2,46.2,89.2z"/>
			<path id="Combined-Shape_3_" class="st2" d="M107,89.2c0-3.5-2.8-6.3-6.3-6.3h-8.3c-3.5,0-6.3,2.8-6.3,6.3H107z"/>
		</g>
	</g>
</g>
</svg>
