<?xml version="1.0" encoding="utf-8"?>
<!-- Generator: Adobe Illustrator 21.1.0, SVG Export Plug-In . SVG Version: 6.00 Build 0)  -->
<svg version="1.1" id="Capa_1" xmlns="http://www.w3.org/2000/svg" xmlns:xlink="http://www.w3.org/1999/xlink" x="0px" y="0px"
	 viewBox="0 0 405 404" style="enable-background:new 0 0 405 404;" xml:space="preserve">
<style type="text/css">
	.st0{fill:#05D775;}
	.st1{fill:#FFFFFF;}
</style>
<path class="st0" d="M398,203.7c0,51.4-19.9,98.1-52.3,132.9c-35.6,38.2-86.3,62.1-142.7,62.1s-107.1-23.9-142.7-62
	C27.9,301.8,8,255.1,8,203.7C8,96,95.3,8.7,203,8.7S398,96,398,203.7z"/>
<g>
	<path class="st1" d="M331,323c-31.9,34.3-77.5,55.7-128,55.7S106.9,357.3,75,323c8.4-37.7,30.7-52.7,89.5-63.3
		c0,0,11.6,14.8,38.6,14.8s38.6-14.8,38.6-14.8C300.3,270.3,322.6,285.3,331,323z"/>
	<path class="st1" d="M203,253.2c38.9,0,70.5-38.3,70.5-85.6S263.1,82,203,82s-70.5,38.3-70.5,85.6S164.1,253.2,203,253.2z"/>
	<path class="st1" d="M69.9,383.9C69.9,381,69.9,383,69.9,383.9L69.9,383.9z"/>
	<path class="st1" d="M336.1,386.1C336.1,385.3,336.1,380.6,336.1,386.1L336.1,386.1z"/>
</g>
<polygon class="st0" points="203,305.5 156.7,259.2 249.3,259.2 "/>
</svg>
